<svg width="187" height="31" viewBox="0 0 187 31" fill="none" xmlns="http://www.w3.org/2000/svg">
<path d="M47.3008 22.7444H43.5859L43.6094 20.0022H47.3008C48.2227 20.0022 49 19.7952 49.6328 19.3811C50.2656 18.9592 50.7422 18.3459 51.0625 17.5413C51.3906 16.7366 51.5547 15.7639 51.5547 14.6233V13.7913C51.5547 12.9163 51.4609 12.1467 51.2734 11.4827C51.0938 10.8186 50.8242 10.26 50.4648 9.80688C50.1055 9.35376 49.6641 9.01392 49.1406 8.78735C48.6172 8.55298 48.0156 8.43579 47.3359 8.43579H43.5156V5.68188H47.3359C48.4766 5.68188 49.5195 5.8772 50.4648 6.26782C51.418 6.65063 52.2422 7.20142 52.9375 7.92017C53.6328 8.63892 54.168 9.49829 54.543 10.4983C54.9258 11.4905 55.1172 12.5959 55.1172 13.8147V14.6233C55.1172 15.8342 54.9258 16.9397 54.543 17.9397C54.168 18.9397 53.6328 19.7991 52.9375 20.5178C52.25 21.2288 51.4258 21.7795 50.4648 22.1702C49.5117 22.553 48.457 22.7444 47.3008 22.7444ZM45.5781 5.68188V22.7444H42.0625V5.68188H45.5781ZM63.2969 22.9788C62.3125 22.9788 61.4297 22.8225 60.6484 22.51C59.8672 22.1897 59.2031 21.7483 58.6562 21.1858C58.1172 20.6233 57.7031 19.9709 57.4141 19.2288C57.125 18.4788 56.9805 17.6819 56.9805 16.8381V16.3694C56.9805 15.4084 57.1172 14.5295 57.3906 13.7327C57.6641 12.9358 58.0547 12.2444 58.5625 11.6584C59.0781 11.0725 59.7031 10.6233 60.4375 10.3108C61.1719 9.99048 62 9.83032 62.9219 9.83032C63.8203 9.83032 64.6172 9.97876 65.3125 10.2756C66.0078 10.5725 66.5898 10.9944 67.0586 11.5413C67.5352 12.0881 67.8945 12.7444 68.1367 13.51C68.3789 14.2678 68.5 15.1116 68.5 16.0413V17.4475H58.4219V15.1975H65.1836V14.9397C65.1836 14.4709 65.0977 14.053 64.9258 13.6858C64.7617 13.3108 64.5117 13.0139 64.1758 12.7952C63.8398 12.5764 63.4102 12.467 62.8867 12.467C62.4414 12.467 62.0586 12.5647 61.7383 12.76C61.418 12.9553 61.1562 13.2288 60.9531 13.5803C60.7578 13.9319 60.6094 14.3459 60.5078 14.8225C60.4141 15.2913 60.3672 15.8069 60.3672 16.3694V16.8381C60.3672 17.3459 60.4375 17.8147 60.5781 18.2444C60.7266 18.6741 60.9336 19.0452 61.1992 19.3577C61.4727 19.6702 61.8008 19.9124 62.1836 20.0842C62.5742 20.2561 63.0156 20.342 63.5078 20.342C64.1172 20.342 64.6836 20.2249 65.207 19.9905C65.7383 19.7483 66.1953 19.385 66.5781 18.9006L68.2188 20.6819C67.9531 21.0647 67.5898 21.4319 67.1289 21.7834C66.6758 22.135 66.1289 22.4241 65.4883 22.6506C64.8477 22.8694 64.1172 22.9788 63.2969 22.9788ZM73.9844 4.74438V22.7444H70.5977V4.74438H73.9844ZM80.3359 10.0647V22.7444H76.9492V10.0647H80.3359ZM76.7383 6.76001C76.7383 6.26782 76.9102 5.86157 77.2539 5.54126C77.5977 5.22095 78.0586 5.06079 78.6367 5.06079C79.207 5.06079 79.6641 5.22095 80.0078 5.54126C80.3594 5.86157 80.5352 6.26782 80.5352 6.76001C80.5352 7.2522 80.3594 7.65845 80.0078 7.97876C79.6641 8.29907 79.207 8.45923 78.6367 8.45923C78.0586 8.45923 77.5977 8.29907 77.2539 7.97876C76.9102 7.65845 76.7383 7.2522 76.7383 6.76001ZM96.8594 13.8264V20.5881C96.5938 20.9084 96.1836 21.2561 95.6289 21.6311C95.0742 21.9983 94.3594 22.3147 93.4844 22.5803C92.6094 22.8459 91.5508 22.9788 90.3086 22.9788C89.207 22.9788 88.2031 22.7991 87.2969 22.4397C86.3906 22.0725 85.6094 21.5374 84.9531 20.8342C84.3047 20.1311 83.8047 19.2717 83.4531 18.2561C83.1016 17.2327 82.9258 16.0647 82.9258 14.7522V13.6858C82.9258 12.3733 83.0938 11.2053 83.4297 10.1819C83.7734 9.15845 84.2617 8.29517 84.8945 7.59204C85.5273 6.88892 86.2812 6.35376 87.1562 5.98657C88.0312 5.61938 89.0039 5.43579 90.0742 5.43579C91.5586 5.43579 92.7773 5.67798 93.7305 6.16235C94.6836 6.63892 95.4102 7.30298 95.9102 8.15454C96.418 8.99829 96.7305 9.96704 96.8477 11.0608H93.4375C93.3516 10.4827 93.1875 9.97876 92.9453 9.54907C92.7031 9.11938 92.3555 8.78345 91.9023 8.54126C91.457 8.29907 90.8789 8.17798 90.168 8.17798C89.582 8.17798 89.0586 8.29907 88.5977 8.54126C88.1445 8.77563 87.7617 9.12329 87.4492 9.58423C87.1367 10.0452 86.8984 10.6155 86.7344 11.2952C86.5703 11.9749 86.4883 12.7639 86.4883 13.6624V14.7522C86.4883 15.6428 86.5742 16.4319 86.7461 17.1194C86.918 17.7991 87.1719 18.3733 87.5078 18.842C87.8516 19.303 88.2734 19.6506 88.7734 19.885C89.2734 20.1194 89.8555 20.2366 90.5195 20.2366C91.0742 20.2366 91.5352 20.1897 91.9023 20.0959C92.2773 20.0022 92.5781 19.8889 92.8047 19.7561C93.0391 19.6155 93.2188 19.4827 93.3438 19.3577V16.3342H90.1328V13.8264H96.8594ZM98.9453 16.5334V16.2874C98.9453 15.3577 99.0781 14.5022 99.3438 13.7209C99.6094 12.9319 99.9961 12.2483 100.504 11.6702C101.012 11.092 101.637 10.6428 102.379 10.3225C103.121 9.99438 103.973 9.83032 104.934 9.83032C105.895 9.83032 106.75 9.99438 107.5 10.3225C108.25 10.6428 108.879 11.092 109.387 11.6702C109.902 12.2483 110.293 12.9319 110.559 13.7209C110.824 14.5022 110.957 15.3577 110.957 16.2874V16.5334C110.957 17.4553 110.824 18.3108 110.559 19.0999C110.293 19.8811 109.902 20.5647 109.387 21.1506C108.879 21.7288 108.254 22.178 107.512 22.4983C106.77 22.8186 105.918 22.9788 104.957 22.9788C103.996 22.9788 103.141 22.8186 102.391 22.4983C101.648 22.178 101.02 21.7288 100.504 21.1506C99.9961 20.5647 99.6094 19.8811 99.3438 19.0999C99.0781 18.3108 98.9453 17.4553 98.9453 16.5334ZM102.32 16.2874V16.5334C102.32 17.0647 102.367 17.5608 102.461 18.0217C102.555 18.4827 102.703 18.8889 102.906 19.2405C103.117 19.5842 103.391 19.8538 103.727 20.0491C104.062 20.2444 104.473 20.342 104.957 20.342C105.426 20.342 105.828 20.2444 106.164 20.0491C106.5 19.8538 106.77 19.5842 106.973 19.2405C107.176 18.8889 107.324 18.4827 107.418 18.0217C107.52 17.5608 107.57 17.0647 107.57 16.5334V16.2874C107.57 15.7717 107.52 15.2874 107.418 14.8342C107.324 14.3733 107.172 13.967 106.961 13.6155C106.758 13.2561 106.488 12.9749 106.152 12.7717C105.816 12.5686 105.41 12.467 104.934 12.467C104.457 12.467 104.051 12.5686 103.715 12.7717C103.387 12.9749 103.117 13.2561 102.906 13.6155C102.703 13.967 102.555 14.3733 102.461 14.8342C102.367 15.2874 102.32 15.7717 102.32 16.2874Z" fill="#4D585E"/>
<path d="M15.5391 0.744385L28.5294 8.24438V23.2444L15.5391 30.7444L2.54868 23.2444V8.24438L15.5391 0.744385Z" fill="#4D585E"/>
</svg>
