<svg width="324" height="49" viewBox="0 0 324 49" fill="none" xmlns="http://www.w3.org/2000/svg">
<path d="M24.7142 0.749268L46.1173 12.6246V36.3753L24.7142 48.2507L3.31107 36.3753V12.6246L24.7142 0.749268Z" fill="#065E7C"/>
<path d="M80.2612 39H73.7603L73.8013 34.2012H80.2612C81.8745 34.2012 83.2349 33.8389 84.3423 33.1143C85.4497 32.376 86.2837 31.3027 86.8442 29.8945C87.4185 28.4863 87.7056 26.7842 87.7056 24.7881V23.332C87.7056 21.8008 87.5415 20.4541 87.2134 19.292C86.8989 18.1299 86.4272 17.1523 85.7983 16.3594C85.1694 15.5664 84.397 14.9717 83.481 14.5752C82.5649 14.165 81.5122 13.96 80.3228 13.96H73.6372V9.14062H80.3228C82.3188 9.14062 84.144 9.48242 85.7983 10.166C87.4663 10.8359 88.9087 11.7998 90.1255 13.0576C91.3423 14.3154 92.2788 15.8193 92.9351 17.5693C93.605 19.3057 93.9399 21.2402 93.9399 23.373V24.7881C93.9399 26.9072 93.605 28.8418 92.9351 30.5918C92.2788 32.3418 91.3423 33.8457 90.1255 35.1035C88.9224 36.3477 87.48 37.3115 85.7983 37.9951C84.1304 38.665 82.2847 39 80.2612 39ZM77.2466 9.14062V39H71.0942V9.14062H77.2466ZM108.254 39.4102C106.532 39.4102 104.987 39.1367 103.62 38.5898C102.252 38.0293 101.09 37.2568 100.133 36.2725C99.1899 35.2881 98.4653 34.1465 97.9595 32.8477C97.4536 31.5352 97.2007 30.1406 97.2007 28.6641V27.8438C97.2007 26.1621 97.4399 24.624 97.9185 23.2295C98.397 21.835 99.0806 20.625 99.9692 19.5996C100.872 18.5742 101.965 17.7881 103.25 17.2412C104.536 16.6807 105.985 16.4004 107.598 16.4004C109.17 16.4004 110.565 16.6602 111.782 17.1797C112.999 17.6992 114.017 18.4375 114.837 19.3945C115.671 20.3516 116.3 21.5 116.724 22.8398C117.148 24.166 117.36 25.6426 117.36 27.2695V29.7305H99.7231V25.793H111.556V25.3418C111.556 24.5215 111.406 23.79 111.105 23.1475C110.818 22.4912 110.38 21.9717 109.792 21.5889C109.205 21.2061 108.453 21.0146 107.537 21.0146C106.757 21.0146 106.087 21.1855 105.527 21.5273C104.966 21.8691 104.508 22.3477 104.153 22.9629C103.811 23.5781 103.551 24.3027 103.374 25.1367C103.209 25.957 103.127 26.8594 103.127 27.8438V28.6641C103.127 29.5527 103.25 30.373 103.497 31.125C103.756 31.877 104.119 32.5264 104.583 33.0732C105.062 33.6201 105.636 34.0439 106.306 34.3447C106.99 34.6455 107.762 34.7959 108.624 34.7959C109.69 34.7959 110.681 34.5908 111.597 34.1807C112.527 33.7568 113.327 33.1211 113.997 32.2734L116.868 35.3906C116.403 36.0605 115.767 36.7031 114.96 37.3184C114.167 37.9336 113.21 38.4395 112.089 38.8359C110.968 39.2188 109.69 39.4102 108.254 39.4102ZM126.958 7.5V39H121.031V7.5H126.958ZM138.073 16.8105V39H132.146V16.8105H138.073ZM131.777 11.0273C131.777 10.166 132.078 9.45508 132.679 8.89453C133.281 8.33398 134.087 8.05371 135.099 8.05371C136.097 8.05371 136.897 8.33398 137.499 8.89453C138.114 9.45508 138.421 10.166 138.421 11.0273C138.421 11.8887 138.114 12.5996 137.499 13.1602C136.897 13.7207 136.097 14.001 135.099 14.001C134.087 14.001 133.281 13.7207 132.679 13.1602C132.078 12.5996 131.777 11.8887 131.777 11.0273ZM166.989 23.3936V35.2266C166.524 35.7871 165.806 36.3955 164.835 37.0518C163.865 37.6943 162.614 38.248 161.083 38.7129C159.551 39.1777 157.699 39.4102 155.525 39.4102C153.597 39.4102 151.84 39.0957 150.254 38.4668C148.668 37.8242 147.301 36.8877 146.153 35.6572C145.018 34.4268 144.143 32.9229 143.528 31.1455C142.913 29.3545 142.605 27.3105 142.605 25.0137V23.1475C142.605 20.8506 142.899 18.8066 143.487 17.0156C144.088 15.2246 144.943 13.7139 146.05 12.4834C147.158 11.2529 148.477 10.3164 150.008 9.67383C151.54 9.03125 153.242 8.70996 155.115 8.70996C157.712 8.70996 159.845 9.13379 161.513 9.98145C163.181 10.8154 164.453 11.9775 165.328 13.4678C166.216 14.9443 166.763 16.6396 166.968 18.5537H161C160.85 17.542 160.563 16.6602 160.139 15.9082C159.715 15.1562 159.107 14.5684 158.314 14.1445C157.535 13.7207 156.523 13.5088 155.279 13.5088C154.253 13.5088 153.337 13.7207 152.531 14.1445C151.738 14.5547 151.068 15.1631 150.521 15.9697C149.974 16.7764 149.557 17.7744 149.27 18.9639C148.983 20.1533 148.839 21.5342 148.839 23.1064V25.0137C148.839 26.5723 148.99 27.9531 149.291 29.1562C149.591 30.3457 150.036 31.3506 150.624 32.1709C151.225 32.9775 151.963 33.5859 152.838 33.9961C153.713 34.4062 154.732 34.6113 155.894 34.6113C156.865 34.6113 157.671 34.5293 158.314 34.3652C158.97 34.2012 159.497 34.0029 159.893 33.7705C160.303 33.5244 160.618 33.292 160.836 33.0732V27.7822H155.217V23.3936H166.989ZM170.639 28.1309V27.7002C170.639 26.0732 170.872 24.5762 171.336 23.209C171.801 21.8281 172.478 20.6318 173.367 19.6201C174.255 18.6084 175.349 17.8223 176.648 17.2617C177.947 16.6875 179.437 16.4004 181.119 16.4004C182.8 16.4004 184.297 16.6875 185.61 17.2617C186.922 17.8223 188.023 18.6084 188.912 19.6201C189.814 20.6318 190.498 21.8281 190.962 23.209C191.427 24.5762 191.66 26.0732 191.66 27.7002V28.1309C191.66 29.7441 191.427 31.2412 190.962 32.6221C190.498 33.9893 189.814 35.1855 188.912 36.2109C188.023 37.2227 186.929 38.0088 185.63 38.5693C184.332 39.1299 182.841 39.4102 181.16 39.4102C179.478 39.4102 177.981 39.1299 176.668 38.5693C175.37 38.0088 174.269 37.2227 173.367 36.2109C172.478 35.1855 171.801 33.9893 171.336 32.6221C170.872 31.2412 170.639 29.7441 170.639 28.1309ZM176.545 27.7002V28.1309C176.545 29.0605 176.627 29.9287 176.792 30.7354C176.956 31.542 177.215 32.2529 177.571 32.8682C177.94 33.4697 178.418 33.9414 179.006 34.2832C179.594 34.625 180.312 34.7959 181.16 34.7959C181.98 34.7959 182.684 34.625 183.272 34.2832C183.86 33.9414 184.332 33.4697 184.687 32.8682C185.042 32.2529 185.302 31.542 185.466 30.7354C185.644 29.9287 185.733 29.0605 185.733 28.1309V27.7002C185.733 26.7979 185.644 25.9502 185.466 25.1572C185.302 24.3506 185.036 23.6396 184.667 23.0244C184.311 22.3955 183.839 21.9033 183.251 21.5479C182.664 21.1924 181.953 21.0146 181.119 21.0146C180.285 21.0146 179.574 21.1924 178.986 21.5479C178.412 21.9033 177.94 22.3955 177.571 23.0244C177.215 23.6396 176.956 24.3506 176.792 25.1572C176.627 25.9502 176.545 26.7979 176.545 27.7002Z" fill="white"/>
</svg>
